<svg width="27" height="28" viewBox="0 0 27 28" fill="none" xmlns="http://www.w3.org/2000/svg">
<path d="M9.27092 0.756314C5.91634 1.90536 3.0553 4.41936 1.4667 7.58887C0.911455 8.68393 0.510447 9.84839 0.271385 11.0514C-0.337838 14.0435 0.0863047 17.2285 1.4667 19.9584C2.36125 21.7398 3.6491 23.3207 5.20686 24.5546C6.67979 25.7267 8.39179 26.5905 10.2117 27.0763C12.5021 27.6932 14.9467 27.6778 17.2602 27.1534C19.3501 26.6753 21.3243 25.6728 22.8975 24.223C24.5632 22.6883 25.7508 20.6756 26.3831 18.5086C27.0695 16.1411 27.162 13.6194 26.7302 11.1979C22.4116 11.1979 18.0931 11.1979 13.7668 11.1979C13.7668 12.987 13.7668 14.7839 13.7668 16.573C16.2654 16.573 18.7717 16.573 21.2703 16.573C20.9773 18.2927 19.9593 19.8582 18.5095 20.8298C17.5995 21.4391 16.5585 21.8401 15.4788 22.0251C14.3915 22.2102 13.2733 22.2334 12.1936 22.0174C11.0909 21.8015 10.0421 21.3388 9.1244 20.691C7.65918 19.6654 6.54098 18.1539 5.97032 16.465C5.38423 14.7453 5.37652 12.8251 5.97032 11.1054C6.37904 9.89466 7.06538 8.76875 7.96765 7.85878C9.07813 6.71745 10.5202 5.90772 12.078 5.57612C13.4121 5.29078 14.8156 5.34477 16.1189 5.73806C17.2294 6.07738 18.2473 6.67889 19.0879 7.4809C19.9362 6.64033 20.7768 5.79205 21.625 4.95147C22.0646 4.49648 22.535 4.06463 22.9669 3.59421C21.6867 2.40662 20.1752 1.45037 18.5327 0.848855C15.5868 -0.253916 12.2476 -0.277051 9.27092 0.756314Z" fill="white"/>
<path d="M9.27098 0.756258C12.2477 -0.277107 15.5869 -0.253972 18.5481 0.841087C20.1907 1.4426 21.6945 2.39885 22.9824 3.58645C22.5505 4.04915 22.0878 4.48871 21.6405 4.9437C20.7922 5.78428 19.9517 6.63256 19.1034 7.47313C18.2628 6.67112 17.2449 6.0619 16.1344 5.73029C14.8311 5.337 13.4276 5.28302 12.0935 5.56835C10.5357 5.89995 9.09361 6.71739 7.98313 7.85101C7.08087 8.76099 6.39453 9.88689 5.98581 11.0976C4.48203 9.93316 2.97825 8.76099 1.47447 7.59652C3.05537 4.41931 5.9164 1.9053 9.27098 0.756258Z" fill="#E94435"/>
<path d="M0.271385 11.0514C0.510447 9.84833 0.919167 8.68387 1.4667 7.58881C2.97047 8.75327 4.47425 9.92545 5.97803 11.0899C5.38423 12.8096 5.39194 14.7298 5.97803 16.4495C4.47425 17.614 2.97047 18.7862 1.4667 19.9506C0.0863047 17.2361 -0.337838 14.0435 0.271385 11.0514Z" fill="#F8BB15"/>
<path d="M13.7746 11.1902C18.0931 11.1902 22.4117 11.1902 26.7379 11.1902C27.1698 13.6117 27.0772 16.1334 26.3909 18.5009C25.7586 20.6678 24.571 22.6883 22.9052 24.2152C21.4477 23.0816 19.9825 21.948 18.5327 20.8144C19.9825 19.8504 21.0004 18.2772 21.2935 16.5575C18.7949 16.5575 16.2886 16.5575 13.79 16.5575C13.7669 14.7761 13.7746 12.987 13.7746 11.1902Z" fill="#547DBE"/>
<path d="M1.46667 19.9584C2.97045 18.7939 4.47423 17.6217 5.97801 16.4572C6.54867 18.1538 7.66687 19.6576 9.13209 20.6832C10.0498 21.331 11.0986 21.786 12.2013 22.0097C13.281 22.2256 14.4069 22.2024 15.4865 22.0174C16.5662 21.8323 17.6072 21.4313 18.5172 20.8221C19.9747 21.9557 21.4399 23.0893 22.8897 24.2229C21.3165 25.6804 19.3424 26.6752 17.2525 27.1534C14.9467 27.6777 12.5021 27.6932 10.204 27.0762C8.38406 26.5904 6.67206 25.7267 5.19913 24.5545C3.64908 23.3129 2.36123 21.732 1.46667 19.9584Z" fill="#34A751"/>
</svg>
